# File created by Blade
# Date/Time:  Fri Jan 16 17:25:32 2015
#---------------------------------------------------------
:version 1.10
:name HOM
:units
  mass 1.0
  length 1.000000
  angle deg
:documentation
     Acclaim Skeleton File
:root
   axis xyz
   order TX TY TZ RX RY RZ
   position 0.000000 0.000000 0.000000
   orientation 0 0 0
:bonedata
   begin
      id 1
      name Spine_dum
      direction 0.000000 1.000000 0.000000
      length 7.170412
      axis 0.0 0.0 0.0 xyz
   end
   begin
      id 2
      name LeftUpLeg_dum
      direction 1.000000 0.000000 0.000000
      length 4.318350
      axis 0.0 0.0 0.0 xyz
   end
   begin
      id 3
      name RightUpLeg_dum
      direction -1.000000 0.000000 0.000000
      length 4.318350
      axis 0.0 0.0 0.0 xyz
   end
   begin
      id 4
      name Spine
      direction 0.000000 1.000000 0.000000
      length 0.000000
      axis 0.0 0.0 0.0 xyz
      dof rx ry rz
   end
   begin
      id 5
      name Spine_dum1
      direction 0.000000 1.000000 0.000000
      length 14.276153
      axis 0.0 0.0 0.0 xyz
   end
   begin
      id 6
      name Spine_dum2
      direction 0.000000 1.000000 0.000000
      length 10.718243
      axis 0.0 0.0 0.0 xyz
   end
   begin
      id 7
      name Spine_dum3
      direction 0.000000 1.000000 0.000000
      length 10.718243
      axis 0.0 0.0 0.0 xyz
   end
   begin
      id 8
      name Head
      direction 0.000000 1.000000 0.000000
      length 4.527550
      axis 0.0 0.0 0.0 xyz
      dof rx ry rz
   end
   begin
      id 9
      name LeftShoulder
      direction 1.000000 0.000000 0.000000
      length 7.058872
      axis 0.0 0.0 -90.0 xyz
      dof rx ry rz
   end
   begin
      id 10
      name LeftArm
      direction 1.000000 0.000000 0.000000
      length 10.955525
      axis 0.0 0.0 -90.0 xyz
      dof rx ry rz
   end
   begin
      id 11
      name LeftForeArm
      direction 1.000000 0.000000 0.000000
      length 8.193716
      axis 0.0 0.0 -90.0 xyz
      dof ry rz rx
   end
   begin
      id 12
      name LeftHand
      direction 0.000000 0.000000 0.000000
      length 0.000000
      axis 0.0 0.0 -90.0 xyz
      dof rx ry rz
   end
   begin
      id 13
      name LeftHand_dum1
      direction 0.000000 0.000000 0.000000
      length 0.000000
      axis 0.0 0.0 -90.0 xyz
   end
   begin
      id 14
      name LeftHand_dum2
      direction 1.000000 0.000000 0.000000
      length 3.937000
      axis 0.0 0.0 -90.0 xyz
   end
   begin
      id 15
      name LeftHandThumb1
      direction 0.000000 0.000000 1.000000
      length 3.937000
      axis 0.0 0.0 -90.0 xyz
      dof rx rz ry
   end
   begin
      id 16
      name RightShoulder
      direction -1.000000 0.000000 0.000000
      length 7.058872
      axis 0.0 0.0 90.0 xyz
      dof rx ry rz
   end
   begin
      id 17
      name RightArm
      direction -1.000000 0.000000 0.000000
      length 10.955525
      axis 0.0 0.0 90.0 xyz
      dof rx ry rz
   end
   begin
      id 18
      name RightForeArm
      direction -1.000000 0.000000 0.000000
      length 8.193716
      axis 0.0 0.0 90.0 xyz
      dof ry rz rx
   end
   begin
      id 19
      name RightHand
      direction 0.000000 0.000000 0.000000
      length 0.000000
      axis 0.0 0.0 90.0 xyz
      dof rx ry rz
   end
   begin
      id 20
      name RightHand_dum1
      direction 0.000000 0.000000 0.000000
      length 0.000000
      axis 0.0 0.0 90.0 xyz
   end
   begin
      id 21
      name RightHand_dum2
      direction -1.000000 0.000000 0.000000
      length 3.937000
      axis 0.0 0.0 90.0 xyz
   end
   begin
      id 22
      name RightHandThumb1
      direction 0.000000 0.000000 1.000000
      length 3.937000
      axis 0.0 0.0 90.0 xyz
      dof rx rz ry
   end
   begin
      id 23
      name LeftUpLeg
      direction 0.000000 -1.000000 0.000000
      length 17.323638
      axis 0.0 0.0 0.0 xyz
      dof rx ry rz
   end
   begin
      id 24
      name LeftLeg
      direction 0.000000 -1.000000 0.000000
      length 16.270368
      axis 0.0 0.0 0.0 xyz
      dof rx ry rz
   end
   begin
      id 25
      name LeftFoot
      direction 0.000000 -0.258819 0.965926
      length 4.922846
      axis 15.0 0.0 0.0 xyz
      dof rx ry rz
   end
   begin
      id 26
      name LeftToeBase
      direction 0.000000 0.000000 1.000000
      length 2.952750
      axis 0.0 0.0 0.0 xyz
      dof rx ry rz
   end
   begin
      id 27
      name RightUpLeg
      direction 0.000000 -1.000000 0.000000
      length 17.323638
      axis 0.0 0.0 0.0 xyz
      dof rx ry rz
   end
   begin
      id 28
      name RightLeg
      direction 0.000000 -1.000000 0.000000
      length 16.270368
      axis 0.0 0.0 0.0 xyz
      dof rx ry rz
   end
   begin
      id 29
      name RightFoot
      direction 0.000000 -0.258819 0.965926
      length 4.922846
      axis 15.0 0.0 0.0 xyz
      dof rx ry rz
   end
   begin
      id 30
      name RightToeBase
      direction 0.000000 0.000000 1.000000
      length 2.952750
      axis 0.0 0.0 0.0 xyz
      dof rx ry rz
   end
:hierarchy
   begin
      root Spine_dum LeftUpLeg_dum RightUpLeg_dum
      Spine_dum Spine
      LeftUpLeg_dum LeftUpLeg
      RightUpLeg_dum RightUpLeg
      Spine Spine_dum1 Spine_dum2 Spine_dum3
      Spine_dum1 Head
      Spine_dum2 LeftShoulder
      Spine_dum3 RightShoulder
      LeftShoulder LeftArm
      LeftArm LeftForeArm
      LeftForeArm LeftHand
      LeftHand LeftHand_dum1 LeftHand_dum2
      LeftHand_dum1 LeftHandThumb1
      RightShoulder RightArm
      RightArm RightForeArm
      RightForeArm RightHand
      RightHand RightHand_dum1 RightHand_dum2
      RightHand_dum1 RightHandThumb1
      LeftUpLeg LeftLeg
      LeftLeg LeftFoot
      LeftFoot LeftToeBase
      RightUpLeg RightLeg
      RightLeg RightFoot
      RightFoot RightToeBase
   end

# File created by Blade
# Date/Time:  Fri Jan 16 17:25:22 2015
# Frame Rate: 120.000 fps
#------------------------------------------------------
:FULLY-SPECIFIED
:DEGREES
1
root -5.908918 35.547773 -8.531494 -3.785995 -8.929064 -4.838517
Spine -0.920026 0.610850 9.165279
Head 5.718448 9.980790 -9.503290
LeftShoulder -25.247579 14.888438 3.589169
LeftArm 26.997053 -55.510289 -31.662259
LeftForeArm 22.398958 -0.000000 4.936624
LeftHand -8.140562 -0.000000 -4.960281
LeftHandThumb1 -26.253704 0.000000 33.147579
RightShoulder -8.781892 13.391330 -22.462430
RightArm -1.967533 13.834416 16.615267
RightForeArm -35.668327 -0.000000 16.654147
RightHand -5.362176 -0.000000 14.037398
RightHandThumb1 -24.326973 -0.000000 -32.862282
LeftUpLeg 13.062029 15.808525 7.934346
LeftLeg -0.903984 -0.000000 0.000000
LeftFoot -17.466755 28.695887 -12.303844
LeftToeBase 18.087501 -0.000000 -0.000000
RightUpLeg 9.667036 -6.026013 0.694506
RightLeg 1.207484 -0.000000 -0.000000
RightFoot -6.240221 -20.718514 9.188365
RightToeBase 9.446609 -0.000000 -0.000000
2
root -5.919545 35.528913 -8.545364 -3.701665 -9.040259 -4.838783
Spine -1.018196 0.668494 9.136057
Head 5.881221 10.017319 -9.448967
LeftShoulder -25.293962 14.932933 3.589342
LeftArm 27.021033 -55.548692 -31.609272
LeftForeArm 22.413282 -0.000000 5.017127
LeftHand -8.168592 -0.000000 -4.881396
LeftHandThumb1 -26.253704 0.000000 33.147579
RightShoulder -8.743990 13.411708 -22.470697
RightArm -1.933024 13.725787 16.588494
RightForeArm -35.535796 -0.000000 16.758280
RightHand -5.450834 -0.000000 13.824341
RightHandThumb1 -24.326973 -0.000000 -32.862282
LeftUpLeg 13.200462 15.934891 7.946614
LeftLeg -1.331946 -0.000000 0.000000
LeftFoot -17.435348 28.719567 -12.319970
LeftToeBase 18.168895 -0.000000 -0.000000
RightUpLeg 9.690989 -5.985726 0.711270
RightLeg 0.947637 -0.000000 -0.000000
RightFoot -6.358720 -20.610755 9.181718
RightToeBase 9.693695 -0.000000 -0.000000
3
root -5.929457 35.506479 -8.557303 -3.660104 -9.163137 -4.812623
Spine -1.058821 0.761081 9.073064
Head 6.012832 10.021012 -9.383755
LeftShoulder -25.305660 14.917064 3.605906
LeftArm 26.993090 -55.552464 -31.476139
LeftForeArm 22.367000 -0.000000 5.067596
LeftHand -8.129360 -0.000000 -4.770763
LeftHandThumb1 -26.253704 0.000000 33.147579
RightShoulder -8.731403 13.383272 -22.476017
RightArm -1.916047 13.752180 16.572093
RightForeArm -35.648379 0.000000 16.919030
RightHand -5.502389 0.000000 13.611759
RightHandThumb1 -24.326973 -0.000000 -32.862282
LeftUpLeg 13.380538 16.118623 7.952271
LeftLeg -1.748409 -0.000000 0.000000
LeftFoot -17.444739 28.708578 -12.339791
LeftToeBase 18.299729 -0.000000 -0.000000
RightUpLeg 9.772187 -5.956934 0.698123
RightLeg 0.658588 -0.000000 -0.000000
RightFoot -6.510440 -20.508583 9.114474
RightToeBase 10.004423 -0.000000 -0.000000
4
root -5.937555 35.479792 -8.576916 -3.555152 -9.301636 -4.781885
Spine -1.154851 0.864989 8.999177
Head 6.121419 10.021028 -9.306680
LeftShoulder -25.344255 14.910773 3.635402
LeftArm 27.014621 -55.590844 -31.421990
LeftForeArm 22.394993 -0.000000 5.143368
LeftHand -8.093608 -0.000000 -4.683001
LeftHandThumb1 -26.253704 0.000000 33.147579
RightShoulder -8.736235 13.330709 -22.422126
RightArm -1.806341 13.813901 16.508876
RightForeArm -35.692033 -0.000000 17.000269
RightHand -5.396430 -0.000000 13.584427
RightHandThumb1 -24.326973 -0.000000 -32.862282
LeftUpLeg 13.493275 16.275264 7.927242
LeftLeg -2.169787 -0.000000 0.000000
LeftFoot -17.500509 28.687679 -12.396603
LeftToeBase 18.498259 -0.000000 -0.000000
RightUpLeg 9.771404 -5.865411 0.695787
RightLeg 0.378107 -0.000000 -0.000000
RightFoot -6.678043 -20.449328 9.037084
RightToeBase 10.306170 -0.000000 -0.000000
5
root -5.947332 35.450443 -8.596616 -3.468415 -9.399961 -4.747636
Spine -1.233216 0.930771 8.912091
Head 6.236562 10.013554 -9.244944
LeftShoulder -25.360432 14.942296 3.653651
LeftArm 27.026087 -55.677537 -31.362332
LeftForeArm 22.373173 0.000000 5.213971
LeftHand -8.086246 -0.000000 -4.560579
LeftHandThumb1 -26.253704 0.000000 33.147579
RightShoulder -8.736436 13.345354 -22.383409
RightArm -1.743433 13.745681 16.453720
RightForeArm -35.660272 -0.000000 17.123021
RightHand -5.517180 0.000000 13.571634
RightHandThumb1 -24.326973 -0.000000 -32.862282
LeftUpLeg 13.606519 16.399782 7.902277
LeftLeg -2.581266 -0.000000 0.000000
LeftFoot -17.594396 28.649770 -12.478473
LeftToeBase 18.665435 -0.000000 -0.000000
RightUpLeg 9.800499 -5.772581 0.699358
RightLeg 0.085816 -0.000000 -0.000000
RightFoot -6.920630 -20.433112 8.982798
RightToeBase 10.716558 -0.000000 -0.000000
6
root -5.960595 35.418480 -8.618921 -3.375374 -9.505747 -4.725730
Spine -1.301986 1.004943 8.827270
Head 6.304426 10.025264 -9.154167
LeftShoulder -25.401142 14.970831 3.647847
LeftArm 27.049225 -55.710053 -31.252728
LeftForeArm 22.288496 -0.000000 5.257324
LeftHand -8.013680 -0.000000 -4.429294
LeftHandThumb1 -26.253704 0.000000 33.147579
RightShoulder -8.737200 13.364402 -22.347770
RightArm -1.711194 13.675713 16.415989
RightForeArm -35.622505 0.000000 17.284987
RightHand -5.604488 0.000000 13.307020
RightHandThumb1 -24.326973 -0.000000 -32.862282
LeftUpLeg 13.720448 16.564198 7.903451
LeftLeg -2.995831 -0.000000 0.000000
LeftFoot -17.644348 28.589133 -12.463961
LeftToeBase 18.798387 -0.000000 -0.000000
RightUpLeg 9.839297 -5.686050 0.719252
RightLeg -0.241617 -0.000000 0.000000
RightFoot -7.121544 -20.406551 8.854093
RightToeBase 11.082910 -0.000000 -0.000000
7
root -5.972250 35.384079 -8.643518 -3.276281 -9.598342 -4.687960
Spine -1.375463 1.066535 8.722523
Head 6.374677 10.044799 -9.062958
LeftShoulder -25.416138 14.964655 3.681415
LeftArm 27.004428 -55.743323 -31.139612
LeftForeArm 22.225445 -0.000000 5.339584
LeftHand -8.011308 -0.000000 -4.172091
LeftHandThumb1 -26.253704 0.000000 33.147579
RightShoulder -8.741827 13.272948 -22.280317
RightArm -1.646426 13.773922 16.375544
RightForeArm -35.592036 -0.000000 17.459740
RightHand -5.603224 -0.000000 13.233647
RightHandThumb1 -24.326973 -0.000000 -32.862282
LeftUpLeg 13.830671 16.656218 7.866394
LeftLeg -3.443006 -0.000000 0.000000
LeftFoot -17.740810 28.567374 -12.590963
LeftToeBase 18.860598 -0.000000 -0.000000
RightUpLeg 9.857404 -5.541678 0.738649
RightLeg -0.544698 -0.000000 0.000000
RightFoot -7.409666 -20.474989 8.748221
RightToeBase 11.519723 -0.000000 -0.000000
8
root -5.982520 35.348425 -8.670750 -3.186037 -9.652211 -4.662236
Spine -1.418351 1.076152 8.642127
Head 6.390920 10.066888 -9.000260
LeftShoulder -25.464038 14.998444 3.660534
LeftArm 27.072584 -55.872090 -31.141202
LeftForeArm 22.238471 -0.000000 5.446770
LeftHand -8.021806 -0.000000 -4.051818
LeftHandThumb1 -26.253704 0.000000 33.147579
RightShoulder -8.753002 13.268656 -22.242984
RightArm -1.594136 13.737719 16.353730
RightForeArm -35.579434 -0.000000 17.622504
RightHand -5.671860 -0.000000 13.095626
RightHandThumb1 -24.326973 -0.000000 -32.862282
LeftUpLeg 13.911890 16.734123 7.847680
LeftLeg -3.846479 -0.000000 0.000000
LeftFoot -17.922000 28.525829 -12.586631
LeftToeBase 19.377604 -0.000000 -0.000000
RightUpLeg 9.877237 -5.413778 0.757944
RightLeg -0.818536 -0.000000 0.000000
RightFoot -7.654508 -20.521087 8.545819
RightToeBase 11.959105 -0.000000 -0.000000
9
root -5.994531 35.311785 -8.701143 -3.057676 -9.736399 -4.650638
Spine -1.500044 1.119416 8.574347
Head 6.417382 10.084909 -8.941346
LeftShoulder -25.531601 15.025126 3.638342
LeftArm 27.127729 -55.889403 -31.086988
LeftForeArm 22.165570 -0.000000 5.500189
LeftHand -8.041455 0.000000 -3.922474
LeftHandThumb1 -26.253704 0.000000 33.147579
RightShoulder -8.741581 13.328514 -22.232851
RightArm -1.628749 13.716756 16.356588
RightForeArm -35.690504 -0.000000 17.834144
RightHand -5.618763 -0.000000 12.818567
RightHandThumb1 -24.326973 -0.000000 -32.862282
LeftUpLeg 13.965759 16.836546 7.829431
LeftLeg -4.249878 -0.000000 0.000000
LeftFoot -18.064272 28.461806 -12.648748
LeftToeBase 19.526720 -0.000000 -0.000000
RightUpLeg 9.842889 -5.174329 0.826356
RightLeg -1.077439 -0.000000 0.000000
RightFoot -7.921114 -20.711940 8.308125
RightToeBase 12.473303 -0.000000 -0.000000
10
root -6.007853 35.278070 -8.731075 -2.969390 -9.807461 -4.688476
Spine -1.503836 1.142240 8.581666
Head 6.393574 10.100659 -8.928619
LeftShoulder -25.600987 15.023079 3.576161
LeftArm 27.188184 -55.936135 -31.066461
LeftForeArm 22.089801 -0.000000 5.591609
LeftHand -8.080740 -0.000000 -3.828733
LeftHandThumb1 -26.253704 0.000000 33.147579
RightShoulder -8.763092 13.278988 -22.190430
RightArm -1.563774 13.761481 16.339167
RightForeArm -35.743347 0.000000 17.988725
RightHand -5.607807 -0.000000 12.605786
RightHandThumb1 -24.326973 -0.000000 -32.862282
LeftUpLeg 14.055597 16.948158 7.879757
LeftLeg -4.637584 -0.000000 0.000000
LeftFoot -18.221390 28.414902 -12.649501
LeftToeBase 19.795235 -0.000000 -0.000000
RightUpLeg 9.855990 -4.935928 0.940064
RightLeg -1.334590 -0.000000 0.000000
RightFoot -8.052099 -20.927847 8.010318
RightToeBase 12.731545 -0.000000 -0.000000
11
root -6.027371 35.249002 -8.763225 -2.886215 -9.801027 -4.812160
Spine -1.493849 1.081344 8.697646
Head 6.372048 10.148661 -8.950599
LeftShoulder -25.679212 15.098476 3.403381
LeftArm 27.348754 -56.079293 -31.094859
LeftForeArm 22.075918 -0.000000 5.654468
LeftHand -8.099488 0.000000 -3.716235
LeftHandThumb1 -26.253704 0.000000 33.147579
RightShoulder -8.772404 13.236834 -22.162183
RightArm -1.499674 13.731190 16.320824
RightForeArm -35.719416 -0.000000 18.120564
RightHand -5.693124 -0.000000 12.390058
RightHandThumb1 -24.326973 -0.000000 -32.862282
LeftUpLeg 14.134445 16.986259 8.032423
LeftLeg -5.004450 -0.000000 0.000000
LeftFoot -18.394015 28.371620 -12.511119
LeftToeBase 20.371840 -0.000000 -0.000000
RightUpLeg 9.896064 -4.729392 1.153098
RightLeg -1.615157 -0.000000 0.000000
RightFoot -8.064795 -21.215019 7.701522
RightToeBase 13.000853 -0.000000 -0.000000
